<svg width="52" height="52" viewBox="0 0 52 52" fill="none" xmlns="http://www.w3.org/2000/svg">
<path d="M0 26C0 11.6406 11.6406 0 26 0V0C40.3594 0 52 11.6406 52 26V26C52 40.3594 40.3594 52 26 52V52C11.6406 52 0 40.3594 0 26V26Z" fill="white"/>
<path fill-rule="evenodd" clip-rule="evenodd" d="M27.4262 26L31.7046 21.7216C32.0985 21.3277 32.0985 20.6892 31.7046 20.2954C31.3108 19.9016 30.6723 19.9016 30.2785 20.2954L26 24.5739L21.7215 20.2954C21.3276 19.9015 20.6892 19.9015 20.2953 20.2954C19.9016 20.6892 19.9016 21.3277 20.2953 21.7215L24.5738 26L20.2953 30.2785C19.9016 30.6723 19.9016 31.3108 20.2953 31.7046C20.6892 32.0985 21.3276 32.0985 21.7215 31.7046L26 27.4261L30.2785 31.7046C30.6723 32.0985 31.3108 32.0985 31.7046 31.7046C32.0985 31.3108 32.0985 30.6723 31.7046 30.2785L27.4262 26V26Z" fill="#292929"/>
<path d="M26 51C12.1929 51 1 39.8071 1 26H-1C-1 40.9117 11.0883 53 26 53V51ZM51 26C51 39.8071 39.8071 51 26 51V53C40.9117 53 53 40.9117 53 26H51ZM26 1C39.8071 1 51 12.1929 51 26H53C53 11.0883 40.9117 -1 26 -1V1ZM26 -1C11.0883 -1 -1 11.0883 -1 26H1C1 12.1929 12.1929 1 26 1V-1Z" fill="black"/>
</svg>
